<svg xmlns="http://www.w3.org/2000/svg" xmlns:xlink="http://www.w3.org/1999/xlink" width="500" zoomAndPan="magnify" viewBox="0 0 375 374.999991" height="500" preserveAspectRatio="xMidYMid meet" version="1.0"><defs><g/></defs><g fill="#0097b2" fill-opacity="1"><g transform="translate(143.245058, 318.559592)"><g><path d="M 224.109375 -279.5625 L 224.109375 -233.09375 L 143.40625 -233.09375 L 143.40625 0 L 88.34375 0 L 88.34375 -233.09375 L 7.65625 -233.09375 L 7.65625 -279.5625 Z M 224.109375 -279.5625 "/></g></g></g><g fill="#030720" fill-opacity="1"><g transform="translate(-22.058818, 318.559592)"><g><path d="M 36.328125 0 L 36.328125 -279.5625 L 148.578125 -279.5625 C 177.515625 -279.5625 199.34375 -272.898438 214.0625 -259.578125 C 228.789062 -246.253906 236.15625 -227.863281 236.15625 -204.40625 C 236.15625 -187.457031 231.851562 -173.5625 223.25 -162.71875 C 214.644531 -151.882812 201.800781 -143.597656 184.71875 -137.859375 L 184.71875 -133.84375 C 193.507812 -130.019531 200.613281 -124.347656 206.03125 -116.828125 C 211.445312 -109.304688 216.578125 -98.15625 221.421875 -83.375 L 249.34375 0 L 192.546875 0 L 165.203125 -83.5625 C 162.398438 -91.976562 159.242188 -98.507812 155.734375 -103.15625 C 152.234375 -107.8125 147.773438 -111.191406 142.359375 -113.296875 C 136.941406 -115.398438 129.898438 -116.453125 121.234375 -116.453125 L 91.59375 -116.453125 L 91.59375 0 Z M 141.875 -160.234375 C 168.644531 -160.234375 182.03125 -172.726562 182.03125 -197.71875 C 182.03125 -223.082031 168.644531 -235.765625 141.875 -235.765625 L 91.59375 -235.765625 L 91.59375 -160.234375 Z M 141.875 -160.234375 "/></g></g></g></svg>